<svg width="32" height="32" viewBox="0 0 32 32" fill="none" xmlns="http://www.w3.org/2000/svg">
<g clip-path="url(#clip0_1_1596)">
<path fill-rule="evenodd" clip-rule="evenodd" d="M30.45 22.7435L29.967 21.591L29.2295 19.956L29.1985 19.925C26.958 15.0421 24.599 10.2145 22.1235 5.44649L22.0245 5.25449L21.2625 3.71799C20.9469 3.08919 20.5602 2.49866 20.11 1.95799C19.6209 1.3417 18.9978 0.845027 18.2879 0.505742C17.5781 0.166457 16.8002 -0.00650968 16.0135 -6.28059e-06C15.2314 0.00265877 14.4592 0.175821 13.7509 0.507417C13.0425 0.839013 12.415 1.32107 11.912 1.91999C11.4727 2.46867 11.0868 3.05801 10.7595 3.67999L9.892 5.37749C7.414 10.185 5.022 15.0485 2.8105 19.856L2.7795 19.918C2.5875 20.4445 2.3335 20.983 2.073 21.56C1.912 21.911 1.751 22.295 1.59 22.7125C1.1814 23.8161 1.04955 25.0031 1.206 26.1695C1.37847 27.3408 1.85312 28.447 2.58319 29.3791C3.31326 30.3112 4.27357 31.037 5.3695 31.485C6.19109 31.8304 7.07428 32.0052 7.9655 31.999C8.24312 31.9942 8.52024 31.9735 8.7955 31.937C9.92564 31.7929 11.0151 31.4222 11.9985 30.847C13.4925 29.9561 14.8334 28.8308 15.97 27.514C17.1135 28.8237 18.4533 29.9481 19.9415 30.847C20.9249 31.4223 22.0143 31.793 23.1445 31.937C23.4195 31.9735 23.697 31.994 23.9745 31.999C24.866 32.008 25.7495 31.833 26.5705 31.485C27.6664 31.037 28.6267 30.3112 29.3568 29.3791C30.0869 28.447 30.5615 27.3408 30.734 26.1695C30.9701 25.0234 30.869 23.8334 30.443 22.7435H30.45ZM16.013 24.41C14.2845 22.229 13.163 20.185 12.779 18.45C12.622 17.8115 12.589 17.15 12.68 16.4985C12.7435 16.016 12.92 15.5555 13.194 15.1485C13.5146 14.7026 13.9386 14.3411 14.4296 14.0951C14.9206 13.8491 15.4639 13.7259 16.013 13.736C17.131 13.693 18.194 14.223 18.832 15.1425C19.107 15.544 19.2832 16.0049 19.346 16.4875C19.4378 17.1383 19.4042 17.8008 19.247 18.439C18.863 20.1365 17.747 22.1565 16.013 24.399V24.41ZM28.794 25.91C28.544 27.5785 27.444 28.993 25.876 29.6275C25.1101 29.9514 24.2739 30.073 23.4475 29.9805C22.5874 29.8743 21.7584 29.5917 21.0125 29.1505C19.6378 28.3206 18.4056 27.2747 17.3635 26.053C19.476 23.457 20.7635 21.0965 21.242 18.9715C21.4504 18.0786 21.5049 17.1567 21.403 16.2455C21.284 15.462 20.987 14.7155 20.5355 14.0645C19.5045 12.5935 17.809 11.7315 16.013 11.766C14.227 11.743 12.542 12.591 11.4965 14.0395C11.045 14.691 10.748 15.4365 10.629 16.2205C10.4937 17.1305 10.5485 18.0587 10.79 18.9465C11.273 21.059 12.5865 23.463 14.6685 26.059C13.6335 27.2879 12.4002 28.3349 11.0195 29.1565C10.2737 29.6072 9.44254 29.8984 8.5785 30.0115C7.75273 30.1029 6.91711 29.9924 6.1435 29.6895C4.58 29.06 3.47 27.646 3.225 25.977C3.12361 25.1396 3.22337 24.2901 3.516 23.499C3.615 23.177 3.77 22.879 3.931 22.477C4.154 21.963 4.414 21.417 4.6685 20.877L4.6995 20.815C6.9115 16.045 9.278 11.175 11.7495 6.42899L11.8425 6.19999L12.6105 4.72499C12.8598 4.21652 13.1698 3.74006 13.5335 3.30599C13.8494 2.9351 14.2421 2.63722 14.6844 2.43295C15.1267 2.22868 15.6081 2.12289 16.0952 2.12289C16.5824 2.12289 17.0638 2.22868 17.5061 2.43295C17.9484 2.63722 18.3411 2.9351 18.657 3.30599C19.0033 3.73826 19.2965 4.21046 19.5305 4.71249L20.2985 6.18749L20.3915 6.37949C22.8265 11.156 25.2055 16.0195 27.4115 20.7965V20.8275C27.6655 21.3415 27.8945 21.9175 28.149 22.4275C28.31 22.8115 28.471 23.134 28.564 23.4495C28.83 24.2469 28.9064 25.0954 28.787 25.9275L28.794 25.91Z" fill="#FF5A5F"/>
</g>
<defs>
<clipPath id="clip0_1_1596">
<rect width="32" height="32" fill="white"/>
</clipPath>
</defs>
</svg>
